<svg width="45" height="50" viewBox="0 0 45 50" fill="none" xmlns="http://www.w3.org/2000/svg">
<path opacity="0.936" fill-rule="evenodd" clip-rule="evenodd" d="M11.9394 -0.0488281C12.5253 -0.0488281 13.1113 -0.0488281 13.6972 -0.0488281C15.1334 0.378338 16.0448 1.32234 16.4316 2.7832C20.403 2.7832 24.3743 2.7832 28.3457 2.7832C28.7298 1.32489 29.6413 0.380879 31.08 -0.0488281C31.666 -0.0488281 32.2519 -0.0488281 32.8378 -0.0488281C33.3444 0.139322 33.8327 0.383463 34.3027 0.683594C36.1418 2.52278 37.9811 4.36198 39.8203 6.20117C40.7733 7.64178 40.8384 9.10662 40.0156 10.5957C38.9931 11.7159 37.9352 12.8063 36.8418 13.8672C36.4548 14.1176 36.0479 14.3292 35.621 14.502C35.5559 16.1296 35.5559 17.7571 35.621 19.3848C37.1459 19.8842 38.1712 20.8934 38.6972 22.4121C40.7313 22.8653 41.6428 24.1186 41.4316 26.1719C43.067 27.2465 43.7343 28.7602 43.4335 30.7129C43.3771 31.0452 43.2631 31.3545 43.0917 31.6406C44.5345 32.6744 44.9414 34.0254 44.3125 35.6934C43.8573 36.5478 43.1574 37.0849 42.2128 37.3047C41.2796 39.8437 40.3845 42.399 39.5273 44.9707C38.2712 47.7089 36.1716 49.369 33.2285 49.9512C26.0019 49.9512 18.7753 49.9512 11.5488 49.9512C8.67651 49.4071 6.60945 47.812 5.34761 45.166C4.4687 42.5944 3.5898 40.0228 2.71089 37.4512C0.559456 36.664 -0.189241 35.1665 0.464797 32.959C0.769485 32.4264 1.17638 31.9869 1.6855 31.6406C0.850042 29.3785 1.40342 27.5393 3.34566 26.123C3.16131 24.0922 4.07277 22.8552 6.08003 22.4121C6.59311 20.8569 7.63477 19.8804 9.20503 19.4824C9.22134 17.822 9.20503 16.1618 9.1562 14.502C8.72933 14.3292 8.32243 14.1176 7.9355 13.8672C6.94266 12.8743 5.94983 11.8815 4.95698 10.8887C3.95356 9.26938 3.98612 7.67434 5.05464 6.10352C6.82873 4.32942 8.60281 2.55534 10.3769 0.78125C10.8635 0.424219 11.3843 0.147525 11.9394 -0.0488281ZM12.2324 1.51367C13.554 1.3195 14.4492 1.84033 14.9179 3.07617C14.9831 3.4668 14.9831 3.85742 14.9179 4.24805C14.1757 6.32823 13.4433 8.41157 12.7207 10.498C12.8153 11.1312 13.1733 11.3753 13.7949 11.2305C13.9693 11.1538 14.1158 11.0399 14.2343 10.8887C15.0026 8.7465 15.7513 6.59807 16.4804 4.44336C17.5629 4.34693 18.6535 4.31438 19.7519 4.3457C19.7519 7.79622 19.7519 11.2468 19.7519 14.6973C18.8988 14.882 18.2478 15.354 17.7988 16.1133C15.3031 16.5256 13.8545 17.9742 13.4531 20.459C13.4206 22.054 13.3879 23.6491 13.3554 25.2441C11.9239 24.0414 11.0775 22.5114 10.8164 20.6543C10.735 18.6353 10.7513 16.6171 10.8652 14.5996C11.7651 14.4843 12.465 14.0611 12.9648 13.3301C13.0089 12.5285 12.6346 12.2192 11.8418 12.4023C11.0446 13.0756 10.1657 13.2059 9.20503 12.793C8.18251 11.8682 7.18968 10.9079 6.22652 9.91211C5.64058 9.00065 5.64058 8.08919 6.22652 7.17773C7.96805 5.4362 9.70962 3.69466 11.4511 1.95313C11.7049 1.77783 11.9654 1.63135 12.2324 1.51367ZM31.373 1.51367C32.0858 1.4149 32.7369 1.56139 33.3261 1.95313C35.0676 3.69466 36.8092 5.4362 38.5507 7.17773C39.0966 8.03351 39.1292 8.91241 38.6484 9.81445C37.6168 10.9113 36.5263 11.9367 35.3769 12.8906C34.3439 13.2406 33.4812 12.9965 32.789 12.1582C31.7366 9.52216 30.76 6.85289 29.8593 4.15039C29.6901 2.87377 30.1946 1.99486 31.373 1.51367ZM21.3144 4.3457C22.0631 4.3457 22.8118 4.3457 23.5605 4.3457C23.5605 7.76367 23.5605 11.1816 23.5605 14.5996C22.8118 14.5996 22.0631 14.5996 21.3144 14.5996C21.3144 11.1816 21.3144 7.76367 21.3144 4.3457ZM25.123 4.3457C26.1889 4.31442 27.2468 4.34697 28.2968 4.44336C29.2479 7.26409 30.257 10.0636 31.3242 12.8418C31.9284 13.8034 32.791 14.3894 33.9121 14.5996C34.0259 16.6496 34.0422 18.7004 33.9609 20.752C33.6959 22.579 32.8497 24.0765 31.4218 25.2441C31.3893 23.6165 31.3567 21.989 31.3242 20.3613C30.8744 17.9259 29.4258 16.5099 26.9785 16.1133C26.5753 15.3584 25.9569 14.8864 25.123 14.6973C25.123 11.2468 25.123 7.79622 25.123 4.3457ZM20.0449 16.1621C21.6077 16.1458 23.1702 16.1621 24.7324 16.2109C25.8152 16.7489 25.978 17.4977 25.2207 18.457C24.7249 18.6616 24.2041 18.7593 23.6582 18.75C23.3696 18.7883 23.158 18.9348 23.0234 19.1895C22.9909 19.7754 22.9583 20.3613 22.9257 20.9473C22.5676 21.4681 22.2096 21.4681 21.8515 20.9473C21.8439 20.2857 21.7788 19.6347 21.6562 18.9941C21.5176 18.9004 21.3711 18.819 21.2167 18.75C20.2231 18.961 19.5232 18.6192 19.1171 17.7246C19.0522 16.9748 19.3615 16.4539 20.0449 16.1621ZM17.3105 17.8223C17.4078 17.8139 17.4891 17.8465 17.5546 17.9199C17.859 19.3801 18.7542 20.1613 20.2402 20.2637C20.2354 22.2618 21.212 23.0919 23.1699 22.7539C24.2377 22.2741 24.6934 21.444 24.5371 20.2637C25.5062 20.2104 26.2712 19.7872 26.832 18.9941C26.9917 18.5765 27.187 18.1858 27.4179 17.8223C28.7461 18.2655 29.5274 19.177 29.7617 20.5566C29.8268 22.2819 29.8268 24.0071 29.7617 25.7324C29.2377 27.8499 27.8869 28.7776 25.7089 28.5156C24.0271 27.9383 23.1644 26.7501 23.121 24.9512C22.8368 24.5823 22.4625 24.4684 21.998 24.6094C21.9167 24.6907 21.8352 24.7722 21.7539 24.8535C21.4781 27.6498 19.9644 28.838 17.2128 28.418C15.9707 27.892 15.2382 26.9643 15.0156 25.6348C14.9504 23.9746 14.9504 22.3145 15.0156 20.6543C15.263 19.2845 16.028 18.3404 17.3105 17.8223ZM15.455 29.3457C13.7346 29.1051 12.0094 29.0888 10.2793 29.2969C9.41343 29.6256 8.82749 30.2278 8.52144 31.1035C6.76453 31.2174 5.00672 31.2337 3.248 31.1523C2.6994 30.1335 2.74822 29.1406 3.39448 28.1738C3.86291 27.7119 4.38374 27.3213 4.95698 27.002C5.01687 26.5204 4.96804 26.0484 4.8105 25.5859C4.86182 24.9159 5.18734 24.4276 5.78706 24.1211C6.31312 24.0361 6.83396 23.9385 7.34956 23.8281C7.53846 23.2527 7.75004 22.6831 7.98433 22.1191C8.32717 21.6703 8.75035 21.3122 9.25386 21.0449C9.71333 23.912 11.227 26.0116 13.7949 27.3438C14.2643 28.0891 14.8176 28.7563 15.455 29.3457ZM29.3222 29.3457C29.6417 29.0754 29.9509 28.7824 30.25 28.4668C30.4941 28.0925 30.7382 27.7181 30.9824 27.3438C33.5442 26.0162 35.0579 23.9166 35.5234 21.0449C35.9968 21.2252 36.3875 21.5182 36.6953 21.9238C37.0121 22.5337 37.2562 23.1685 37.4277 23.8281C37.9455 23.9316 38.4663 24.0293 38.9902 24.1211C39.5907 24.4282 39.9162 24.9165 39.9667 25.5859C39.8093 26.0476 39.7605 26.5196 39.8203 27.002C40.3935 27.3213 40.9143 27.7119 41.3828 28.1738C41.9987 29.1007 42.0801 30.0772 41.6269 31.1035C39.8377 31.2012 38.0473 31.2337 36.2558 31.2012C36.0608 30.2085 35.4749 29.5737 34.498 29.2969C32.7685 29.0888 31.0433 29.1051 29.3222 29.3457ZM22.3886 27.9785C22.6357 28.2898 22.896 28.5991 23.1699 28.9062C22.6491 29.1016 22.1282 29.1016 21.6074 28.9062C21.9251 28.638 22.1855 28.3287 22.3886 27.9785ZM16.1386 29.7363C17.3229 30.1683 18.5273 30.2334 19.7519 29.9316C21.5097 30.8431 23.2675 30.8431 25.0253 29.9316C26.25 30.2334 27.4543 30.1683 28.6386 29.7363C28.2105 30.1327 27.9501 30.621 27.8574 31.2012C24.2116 31.2012 20.5657 31.2012 16.9199 31.2012C16.8289 30.6221 16.5685 30.1338 16.1386 29.7363ZM10.9628 30.7129C12.2721 30.6695 13.5742 30.7184 14.8691 30.8594C15.1132 30.9733 15.2922 31.1523 15.4062 31.3965C15.4713 31.8848 15.4713 32.373 15.4062 32.8613C15.263 33.0396 15.084 33.0884 14.8691 33.0078C14.7332 32.7418 14.6193 32.4651 14.5273 32.1777C14.0719 31.7624 13.6487 31.7949 13.2578 32.2754C13.1799 32.541 13.0661 32.7852 12.916 33.0078C12.7858 33.0729 12.6555 33.0729 12.5253 33.0078C12.3894 32.7418 12.2755 32.4651 12.1835 32.1777C11.7339 31.784 11.3108 31.8165 10.914 32.2754C10.8362 32.541 10.7223 32.7852 10.5722 33.0078C10.442 33.0729 10.3118 33.0729 10.1816 33.0078C9.94419 32.4521 9.92788 31.8825 10.1328 31.2988C10.3509 30.996 10.6276 30.8007 10.9628 30.7129ZM30.2988 30.7129C31.6068 30.6714 32.9088 30.7202 34.205 30.8594C34.4674 31.0425 34.6465 31.2866 34.7421 31.5918C34.8408 32.0857 34.7919 32.5577 34.5957 33.0078C34.4655 33.0729 34.3352 33.0729 34.205 33.0078C34.0533 32.7466 33.9231 32.4699 33.8144 32.1777C33.4927 31.8613 33.1346 31.8125 32.7402 32.0312C32.5181 32.2602 32.4042 32.5369 32.3984 32.8613C32.1706 33.1218 31.9426 33.1218 31.7148 32.8613C31.5344 31.9408 31.0461 31.713 30.25 32.1777C30.172 32.4749 30.0581 32.7516 29.9082 33.0078C29.6932 33.0884 29.5142 33.0396 29.371 32.8613C29.3059 32.4056 29.3059 31.9499 29.371 31.4941C29.5266 31.0359 29.8359 30.7756 30.2988 30.7129ZM3.05269 32.7637C4.84335 32.7474 6.63371 32.7637 8.42378 32.8125C8.89487 34.5046 9.95278 35.0091 11.5976 34.3262C12.3789 34.7168 13.1601 34.7168 13.9414 34.3262C15.5998 35.0247 16.6251 34.5039 17.0175 32.7637C20.5983 32.7637 24.179 32.7637 27.7597 32.7637C27.9042 33.9173 28.5552 34.5358 29.7128 34.6191C30.1329 34.6369 30.5235 34.5393 30.8847 34.3262C31.6468 34.7137 32.4118 34.7137 33.1796 34.3262C34.1911 34.8229 35.1025 34.6927 35.914 33.9355C36.1469 33.5788 36.2934 33.1882 36.3535 32.7637C38.1441 32.7474 39.9345 32.7637 41.7246 32.8125C42.9606 33.2337 43.3024 34.0312 42.75 35.2051C42.5449 35.4948 42.2681 35.6738 41.9199 35.7422C40.1946 35.7747 38.4694 35.8073 36.7441 35.8398C36.2828 36.0776 36.1363 36.452 36.3046 36.9629C36.3535 37.1419 36.4674 37.2559 36.6464 37.3047C37.916 37.3372 39.1855 37.3698 40.455 37.4023C39.6047 40.0184 38.677 42.6063 37.6718 45.166C36.6105 46.8612 35.0968 47.9192 33.1308 48.3398C29.552 48.4502 25.9712 48.499 22.3886 48.4863C19.166 48.47 15.9433 48.4538 12.7207 48.4375C10.0958 48.2897 8.15887 47.069 6.91011 44.7754C6.04697 42.3161 5.18434 39.8584 4.32222 37.4023C14.3483 37.3698 24.3743 37.3372 34.4003 37.3047C34.9872 36.8834 35.0198 36.4276 34.498 35.9375C23.959 35.8077 13.4122 35.7426 2.85738 35.7422C1.77316 35.281 1.49647 34.516 2.0273 33.4473C2.29188 33.0851 2.63367 32.8571 3.05269 32.7637Z" fill="#927EC9"/>
</svg>
